<?xml version="1.0" encoding="UTF-8"?>
<!-- Generator: Adobe Illustrator 18.0.0, SVG Export Plug-In . SVG Version: 6.00 Build 0)  -->
<!DOCTYPE svg PUBLIC "-//W3C//DTD SVG 1.1//EN" "http://www.w3.org/Graphics/SVG/1.1/DTD/svg11.dtd">
<svg xmlns="http://www.w3.org/2000/svg" xmlns:xlink="http://www.w3.org/1999/xlink" xmlns:dc="http://purl.org/dc/elements/1.1/" xmlns:cc="http://creativecommons.org/ns#" xmlns:rdf="http://www.w3.org/1999/02/22-rdf-syntax-ns#" version="1.1" x="0px" y="0px" viewBox="0 0 32 32" enable-background="new 0 0 32 32" xml:space="preserve">
<title property="dc:title">to believe</title><desc property="dc:description">An icon for "believe" from the Pictogram series on to [icon]. Downloaded from http://www.toicon.com/icons/pictogram_believe by 46.53.206.51 on 2015-04-14. Licensed CC-BY, see http://toicon.com/license/ for details.</desc><g id="LABELS">
</g>
<g id="DESIGNS">
	<g>
		<g>
			<circle fill="#0C6667" cx="16" cy="16" r="16"/>
		</g>
		<g>
			<path fill="#E54D2E" d="M24.196,13H23.01H8.99H7.804C6.255,13,5,14.451,5,16c0,1.549,1.255,3,2.804,3h16.392     C25.745,19,27,17.549,27,16C27,14.451,25.745,13,24.196,13z"/>
			<g>
				<circle fill="#F27261" cx="8" cy="16" r="1"/>
				<circle fill="#F27261" cx="13" cy="16" r="1"/>
				<circle fill="#F27261" cx="19" cy="16" r="1"/>
				<circle fill="#F27261" cx="24" cy="16" r="1"/>
			</g>
			<path fill="#F4D6B0" d="M16,6.453c-3.72,0-6.759,2.89-7.01,6.547H23.01C22.759,9.344,19.72,6.453,16,6.453z"/>
		</g>
		<g>
			<path fill="#01A59C" d="M5.765,9.945c-0.031,0.167-0.052,0.338-0.052,0.514c0,1.174,0.731,2.173,1.761,2.579     C7.584,13.023,7.691,13,7.804,13H8.99c0.152-2.203,1.319-4.122,3.034-5.305c-0.047-0.002-0.091-0.014-0.138-0.014h-0.155     c0.031-0.167,0.052-0.338,0.052-0.514c0-1.534-1.243-2.777-2.777-2.777H6.063c0.943,0.411,1.603,1.349,1.603,2.443     C7.667,8.306,6.473,9.5,5,9.5c-0.503,0-0.969-0.148-1.371-0.39c0.504,0.514,1.205,0.835,1.981,0.835H5.765z"/>
			<g>
				<path fill="none" d="M24.16,25.185c0-2.209,1.791-4,4-4c1,0,1.902,0.38,2.604,0.986C31.558,20.271,32,18.188,32,16      c0-8.837-7.163-16-16-16C11.847,0,8.076,1.596,5.232,4.19c1.362,0.12,2.434,1.25,2.434,2.643C7.667,8.306,6.473,9.5,5,9.5      c-1.227,0-2.251-0.834-2.561-1.963C0.902,9.994,0,12.888,0,16c0,8.837,7.163,16,16,16c3.764,0,7.218-1.309,9.951-3.484      C24.872,27.799,24.16,26.576,24.16,25.185z"/>
				<path fill="#F8AD89" d="M30.764,22.171c-0.701-0.606-1.604-0.986-2.604-0.986c-2.209,0-4,1.791-4,4      c0,1.392,0.712,2.615,1.791,3.331C28.045,26.849,29.716,24.675,30.764,22.171z"/>
				<path fill="#F27261" d="M5,9.5c1.473,0,2.667-1.194,2.667-2.667c0-1.393-1.072-2.524-2.434-2.643      C4.156,5.172,3.216,6.296,2.439,7.537C2.749,8.666,3.773,9.5,5,9.5z"/>
			</g>
			<g>
				<path fill="none" d="M20.046,29.596L18.335,19h5.861c0.571,0,1.101-0.2,1.544-0.526c0.012,0.105,0.032,0.209,0.032,0.317      c0,0.176-0.02,0.347-0.052,0.514h2.881c1.058,0,2.023,0.364,2.807,0.957C31.783,18.903,32,17.478,32,16c0-8.837-7.163-16-16-16      S0,7.163,0,16s7.163,16,16,16c3.674,0,7.049-1.252,9.75-3.334h-5.533C20.217,28.994,20.151,29.304,20.046,29.596z       M11.835,30.331c-0.351-0.465-0.567-1.037-0.567-1.665c0-0.176,0.02-0.347,0.052-0.514h-0.155c-1.534,0-2.777-1.243-2.777-2.777      s1.243-2.777,2.777-2.777h1.919L11.835,30.331z"/>
				<path fill="none" d="M24.16,25.185c0,1.395,0.727,2.603,1.811,3.316c2.085-1.665,3.748-3.834,4.793-6.33      c-0.701-0.606-1.604-0.986-2.604-0.986C25.951,21.185,24.16,22.975,24.16,25.185z"/>
				<path fill="#01A59C" d="M28.601,19.305H25.72c0.081-0.431,0.054-0.537,0.02-0.832C25.297,18.8,24.767,19,24.196,19h-5.861      l1.711,10.596c0.104-0.292,0.171-0.602,0.171-0.93h5.533c0.073-0.056,0.149-0.108,0.221-0.165      c-1.084-0.714-1.811-1.922-1.811-3.316c0-2.209,1.791-4,4-4c1,0,1.902,0.38,2.604,0.986c0.258-0.616,0.465-1.257,0.645-1.909      C30.624,19.67,29.659,19.305,28.601,19.305z"/>
				<path fill="#01A59C" d="M8.388,25.374c0,1.534,1.243,2.777,2.777,2.777h0.155c-0.031,0.167-0.052,0.338-0.052,0.514      c0,0.627,0.216,1.2,0.567,1.665l1.249-7.734h-1.919C9.631,22.597,8.388,23.84,8.388,25.374z"/>
			</g>
		</g>
		<g>
			<path fill="#F8AD89" d="M16,19v13c1.505,0,2.955-0.222,4.336-0.611L18.335,19H16z"/>
			<path fill="#F4D6B0" d="M16,19h-2.335l-2.001,12.389C13.045,31.778,14.495,32,16,32V19z"/>
		</g>
	</g>
</g>
<metadata><work rdf:about=""><format>image/svg+xml</format><type rdf:resource="http://purl.org/dc/dcmitype/StillImage"/><license rdf:resource="http://creativecommons.org/licenses/by/4.0/"/><attributionname>Jo Szczepanska</attributionname><attributionurl>http://www.toicon.com/icons/pictogram_believe</attributionurl></work></metadata></svg>
