<svg width="1000pt" height="800pt" viewBox="0 0 1000 800" version="1.1" xmlns="http://www.w3.org/2000/svg">
<path fill="#fff600" opacity="1.00" d=" M 558.08 272.11 C 558.58 268.46 562.58 266.12 566.07 267.09 C 570.23 267.83 572.50 271.75 575.74 274.04 C 583.59 280.33 591.20 286.94 599.19 293.06 C 602.66 291.21 606.59 290.67 610.25 289.31 C 615.89 287.14 621.61 285.15 627.50 283.76 C 631.37 282.00 636.19 280.91 640.14 282.87 C 643.74 284.99 643.06 289.46 643.07 293.01 C 643.17 295.46 642.77 297.88 641.94 300.18 C 649.91 297.53 657.90 294.94 666.04 292.80 C 669.90 291.80 674.15 294.87 673.85 298.98 C 673.38 303.34 673.10 307.75 671.91 311.99 C 679.64 309.14 687.53 306.79 695.37 304.28 C 697.86 303.56 701.16 303.89 702.52 306.42 C 704.21 308.59 703.90 311.39 703.45 313.91 C 702.99 320.37 701.51 326.70 700.08 333.00 C 765.72 333.00 831.36 333.00 897.00 333.00 C 897.00 381.67 897.00 430.33 897.00 479.00 C 817.81 479.00 738.62 479.00 659.43 479.00 C 650.87 483.46 640.64 485.99 631.19 483.09 C 628.02 486.86 623.17 488.28 619.19 490.97 C 611.87 493.98 603.75 494.91 595.92 493.62 C 593.03 495.84 589.90 497.73 587.03 500.00 C 576.81 504.84 564.70 508.38 553.61 504.38 C 550.38 502.94 546.89 502.17 543.75 500.55 C 538.29 497.06 533.85 492.28 529.41 487.61 C 527.61 484.65 525.59 481.85 523.66 478.98 C 392.44 479.03 261.22 478.99 130.00 479.00 C 130.00 430.33 130.00 381.67 130.00 333.00 C 268.68 333.00 407.35 333.00 546.03 333.00 C 548.87 332.95 551.73 333.15 554.57 332.91 C 557.05 331.70 559.30 330.10 561.75 328.85 C 556.30 324.66 548.49 319.69 550.07 311.68 C 552.80 298.50 555.25 285.26 558.08 272.11 M 555.45 314.54 C 557.54 318.36 561.23 320.82 564.39 323.69 C 567.28 326.32 570.20 328.92 573.23 331.40 C 567.94 333.04 562.52 334.76 557.99 338.06 C 553.20 341.29 549.01 346.19 548.20 352.08 C 541.06 388.36 533.92 424.64 526.78 460.92 C 526.02 464.71 526.99 468.61 528.19 472.21 C 531.49 482.25 538.96 490.73 548.18 495.78 C 552.54 497.52 556.90 499.95 561.73 499.92 C 574.63 500.49 587.46 494.52 595.89 484.84 C 598.14 481.90 600.62 478.82 600.95 474.98 L 601.25 474.30 C 608.37 437.12 616.12 400.05 623.16 362.85 C 623.11 352.41 615.19 344.28 607.57 338.13 C 614.96 335.62 622.33 333.07 629.60 330.22 C 632.42 315.96 635.48 301.73 637.88 287.39 C 626.88 289.44 616.48 293.97 605.75 297.10 C 602.32 297.92 598.27 300.96 595.17 297.86 C 584.64 289.50 574.64 280.46 563.99 272.25 C 561.41 286.39 558.75 300.55 555.45 314.54 M 641.33 306.10 C 639.38 313.26 638.36 320.63 636.93 327.90 C 636.38 330.52 635.61 333.45 633.20 334.99 C 628.72 337.85 623.47 339.12 618.44 340.62 C 626.78 346.94 631.10 358.52 628.64 368.77 C 621.27 404.79 614.37 440.90 607.20 476.96 C 606.51 481.58 603.31 485.16 600.50 488.67 C 611.59 489.45 622.72 484.41 630.15 476.27 C 632.86 473.42 635.22 469.99 635.71 466.00 C 641.92 434.73 648.19 403.47 654.35 372.19 C 655.06 368.81 655.65 365.38 655.38 361.92 C 653.15 354.28 647.71 348.18 641.40 343.57 C 647.03 341.38 652.82 339.66 658.48 337.55 C 659.70 336.92 661.61 336.65 661.76 334.98 C 663.83 324.80 665.53 314.55 667.76 304.40 C 668.24 302.18 668.64 299.92 668.63 297.64 C 659.34 299.82 650.50 303.52 641.33 306.10 M 671.70 317.58 C 670.43 323.49 669.42 329.46 668.16 335.38 C 667.08 339.87 662.71 342.47 658.46 343.37 C 656.34 344.65 653.88 345.12 651.48 345.55 C 653.97 347.32 655.89 349.73 657.36 352.41 C 660.12 357.20 662.97 362.75 661.65 368.44 C 654.73 402.50 648.08 436.62 641.30 470.72 C 639.53 473.66 637.50 476.44 635.31 479.09 C 643.03 479.09 651.08 478.08 657.58 473.54 C 662.74 469.86 668.25 465.22 669.37 458.62 C 675.21 429.06 681.14 399.50 687.02 369.94 C 687.14 361.49 680.71 354.72 674.39 349.90 C 679.66 347.98 684.99 346.23 690.25 344.30 C 691.73 343.93 692.61 342.80 692.68 341.27 C 694.84 330.62 696.93 319.95 698.94 309.27 C 689.63 311.19 680.81 314.91 671.70 317.58 M 152.94 353.00 C 151.69 388.00 150.38 423.00 148.87 458.00 C 151.95 458.00 155.03 458.00 158.11 458.00 C 162.68 445.88 167.24 433.76 171.81 421.64 C 177.94 406.00 183.27 390.04 189.53 374.46 C 189.77 384.98 188.94 395.49 188.93 406.00 C 188.88 423.33 188.82 440.67 188.73 458.00 C 191.82 458.00 194.91 458.00 198.00 458.00 C 210.19 423.00 222.43 388.01 234.62 353.01 C 231.46 352.99 228.30 353.00 225.14 353.00 C 217.21 376.77 208.81 400.39 201.29 424.30 C 199.67 429.08 198.46 434.03 196.35 438.64 C 196.13 430.08 196.81 421.53 197.07 412.98 C 197.43 392.99 197.65 372.99 198.08 353.00 C 195.21 353.00 192.34 352.99 189.47 353.02 C 181.44 374.54 173.30 396.02 165.32 417.57 C 162.60 424.55 160.35 431.72 157.29 438.56 C 157.30 436.01 157.42 433.47 157.64 430.94 C 159.65 404.99 160.72 378.98 162.21 353.00 C 159.12 353.00 156.03 353.00 152.94 353.00 M 448.24 353.09 C 442.96 353.48 437.49 354.81 433.37 358.32 C 427.62 363.15 424.88 370.55 423.45 377.73 C 420.25 394.19 417.08 410.67 413.88 427.14 C 412.44 434.46 411.56 442.67 415.57 449.38 C 418.15 454.17 423.16 457.18 428.41 458.16 C 436.23 459.67 445.02 459.34 451.82 454.77 C 458.22 450.12 461.42 442.34 462.92 434.81 C 466.30 417.17 469.59 399.51 472.97 381.87 C 474.30 374.72 474.04 366.58 469.28 360.68 C 464.39 354.37 455.80 352.69 448.24 353.09 M 245.23 354.01 C 238.57 388.69 231.76 423.34 225.01 458.00 C 239.51 458.00 254.01 458.00 268.51 458.00 C 269.04 455.33 269.49 452.66 270.05 450.00 C 258.54 450.00 247.03 450.00 235.51 450.00 C 238.19 436.35 240.82 422.69 243.47 409.03 C 253.54 409.01 263.60 409.12 273.67 408.96 C 274.19 405.97 274.71 402.98 275.30 400.00 C 265.24 399.99 255.18 400.02 245.11 399.98 C 247.60 387.67 250.01 375.35 252.47 363.03 C 263.97 363.05 275.48 363.03 286.99 363.04 C 287.55 360.02 288.19 357.02 288.74 354.00 C 274.23 354.00 259.73 353.99 245.23 354.01 M 299.09 354.00 C 292.38 388.68 285.64 423.35 278.83 458.00 C 285.89 457.98 292.96 458.02 300.02 458.00 C 307.28 457.94 314.88 456.28 320.58 451.54 C 327.90 445.59 331.50 436.19 332.52 427.03 C 333.32 420.84 333.71 414.10 330.63 408.43 C 329.18 405.74 326.27 404.47 323.72 403.10 C 327.11 401.62 330.55 399.97 333.15 397.25 C 338.20 392.23 340.21 385.00 340.64 378.07 C 341.20 371.76 340.75 364.70 336.39 359.70 C 332.33 355.12 325.82 354.23 320.04 354.01 C 313.06 353.96 306.07 354.02 299.09 354.00 M 360.69 354.00 C 353.89 388.65 347.16 423.32 340.43 457.99 C 345.72 458.01 351.01 457.99 356.31 458.00 C 360.58 436.91 364.14 415.67 368.75 394.66 C 372.90 415.77 377.08 436.89 381.34 457.99 C 386.04 458.07 390.74 458.03 395.45 458.04 C 402.22 423.37 409.00 388.70 415.69 354.01 C 410.45 353.99 405.21 354.00 399.97 354.00 C 395.79 375.85 392.12 397.80 387.60 419.58 C 385.68 410.87 384.66 401.99 382.91 393.25 C 380.28 380.17 377.69 367.08 375.08 354.00 C 370.28 354.00 365.49 354.00 360.69 354.00 M 485.80 354.00 C 484.73 359.00 483.81 364.04 482.73 369.04 C 488.40 369.04 494.07 369.03 499.75 369.04 C 493.94 398.70 488.22 428.37 482.48 458.04 C 487.77 458.04 493.06 458.03 498.35 458.04 C 504.14 428.38 509.89 398.71 515.60 369.04 C 521.27 369.02 526.94 369.09 532.61 368.97 C 533.57 363.98 534.61 359.00 535.57 354.01 C 518.98 353.98 502.39 354.01 485.80 354.00 M 723.84 353.99 C 717.04 388.65 710.34 423.34 703.56 458.01 C 705.62 457.99 707.70 457.99 709.78 457.99 C 715.54 428.46 721.09 398.89 726.97 369.40 C 733.87 398.88 740.36 428.47 747.05 458.00 C 749.05 458.00 751.06 457.99 753.08 458.00 C 759.86 423.34 766.55 388.66 773.36 354.01 C 771.27 354.00 769.19 354.00 767.12 354.00 C 761.46 383.19 755.84 412.39 749.97 441.54 C 742.97 412.43 736.45 383.19 729.71 354.02 C 727.75 354.00 725.79 353.99 723.84 353.99 M 789.08 354.00 C 782.38 388.68 775.64 423.34 768.83 458.00 C 782.99 458.00 797.14 458.00 811.30 458.00 C 811.66 456.00 812.04 454.01 812.41 452.01 C 800.34 451.98 788.27 452.02 776.20 451.99 C 779.16 437.02 782.00 422.02 784.92 407.04 C 795.53 407.04 806.14 407.04 816.75 407.04 C 817.12 405.02 817.50 403.01 817.91 401.00 C 807.31 400.99 796.71 401.02 786.11 400.98 C 788.87 387.34 791.46 373.67 794.26 360.03 C 806.24 360.05 818.22 360.04 830.20 360.04 C 830.66 358.03 831.12 356.02 831.58 354.01 C 817.41 353.98 803.25 354.01 789.08 354.00 M 835.06 354.00 C 834.62 356.01 834.16 358.03 833.69 360.04 C 840.35 360.04 847.02 360.04 853.68 360.04 C 847.31 392.68 841.13 425.36 834.74 458.00 C 836.80 457.99 838.87 458.00 840.95 458.00 C 847.26 425.34 853.61 392.69 859.99 360.04 C 866.59 360.03 873.19 360.04 879.80 360.04 C 880.22 358.02 880.67 356.01 881.15 354.00 C 865.78 354.00 850.42 354.00 835.06 354.00 M 683.88 450.00 C 683.32 452.66 682.76 455.32 682.26 458.00 C 684.84 457.99 687.44 458.00 690.03 458.00 C 690.49 455.33 691.05 452.68 691.51 450.01 C 688.96 450.00 686.42 450.00 683.88 450.00 Z" />
<path fill="#000000" opacity="1.00" d=" M 555.45 314.54 C 558.75 300.55 561.41 286.39 563.99 272.25 C 574.64 280.46 584.64 289.50 595.17 297.86 C 598.27 300.96 602.32 297.92 605.75 297.10 C 616.48 293.97 626.88 289.44 637.88 287.39 C 635.48 301.73 632.42 315.96 629.60 330.22 C 622.33 333.07 614.96 335.62 607.57 338.13 C 615.19 344.28 623.11 352.41 623.16 362.85 C 616.12 400.05 608.37 437.12 601.25 474.30 L 600.95 474.98 C 600.62 478.82 598.14 481.90 595.89 484.84 C 587.46 494.52 574.63 500.49 561.73 499.92 C 556.90 499.95 552.54 497.52 548.18 495.78 C 538.96 490.73 531.49 482.25 528.19 472.21 C 526.99 468.61 526.02 464.71 526.78 460.92 C 533.92 424.64 541.06 388.36 548.20 352.08 C 549.01 346.19 553.20 341.29 557.99 338.06 C 562.52 334.76 567.94 333.04 573.23 331.40 C 570.20 328.92 567.28 326.32 564.39 323.69 C 561.23 320.82 557.54 318.36 555.45 314.54 Z" />
<path fill="#000000" opacity="1.00" d=" M 641.33 306.10 C 650.50 303.52 659.34 299.82 668.63 297.64 C 668.64 299.92 668.24 302.18 667.76 304.40 C 665.53 314.55 663.83 324.80 661.76 334.98 C 661.61 336.65 659.70 336.92 658.48 337.55 C 652.82 339.66 647.03 341.38 641.40 343.57 C 647.71 348.18 653.15 354.28 655.38 361.92 C 655.65 365.38 655.06 368.81 654.35 372.19 C 648.19 403.47 641.92 434.73 635.71 466.00 C 635.22 469.99 632.86 473.42 630.15 476.27 C 622.72 484.41 611.59 489.45 600.50 488.67 C 603.31 485.16 606.51 481.58 607.20 476.96 C 614.37 440.90 621.27 404.79 628.64 368.77 C 631.10 358.52 626.78 346.94 618.44 340.62 C 623.47 339.12 628.72 337.85 633.20 334.99 C 635.61 333.45 636.38 330.52 636.93 327.90 C 638.36 320.63 639.38 313.26 641.33 306.10 Z" />
<path fill="#000000" opacity="1.00" d=" M 671.70 317.58 C 680.81 314.91 689.63 311.19 698.94 309.27 C 696.93 319.95 694.84 330.62 692.68 341.27 C 692.61 342.80 691.73 343.93 690.25 344.30 C 684.99 346.23 679.66 347.98 674.39 349.90 C 680.71 354.72 687.14 361.49 687.02 369.94 C 681.14 399.50 675.21 429.06 669.37 458.62 C 668.25 465.22 662.74 469.86 657.58 473.54 C 651.08 478.08 643.03 479.09 635.31 479.09 C 637.50 476.44 639.53 473.66 641.30 470.72 C 648.08 436.62 654.73 402.50 661.65 368.44 C 662.97 362.75 660.12 357.20 657.36 352.41 C 655.89 349.73 653.97 347.32 651.48 345.55 C 653.88 345.12 656.34 344.65 658.46 343.37 C 662.71 342.47 667.08 339.87 668.16 335.38 C 669.42 329.46 670.43 323.49 671.70 317.58 Z" />
<path fill="#000000" opacity="1.00" d=" M 152.94 353.00 C 156.03 353.00 159.12 353.00 162.21 353.00 C 160.72 378.98 159.65 404.99 157.64 430.94 C 157.42 433.47 157.30 436.01 157.29 438.56 C 160.35 431.72 162.60 424.55 165.32 417.57 C 173.30 396.02 181.44 374.54 189.47 353.02 C 192.34 352.99 195.21 353.00 198.08 353.00 C 197.65 372.99 197.43 392.99 197.07 412.98 C 196.81 421.53 196.13 430.08 196.35 438.64 C 198.46 434.03 199.67 429.08 201.29 424.30 C 208.81 400.39 217.21 376.77 225.14 353.00 C 228.30 353.00 231.46 352.99 234.62 353.01 C 222.43 388.01 210.19 423.00 198.00 458.00 C 194.91 458.00 191.82 458.00 188.73 458.00 C 188.82 440.67 188.88 423.33 188.93 406.00 C 188.94 395.49 189.77 384.98 189.53 374.46 C 183.27 390.04 177.94 406.00 171.81 421.64 C 167.24 433.76 162.68 445.88 158.11 458.00 C 155.03 458.00 151.95 458.00 148.87 458.00 C 150.38 423.00 151.69 388.00 152.94 353.00 Z" />
<path fill="#000000" opacity="1.00" d=" M 448.24 353.09 C 455.80 352.69 464.39 354.37 469.28 360.68 C 474.04 366.58 474.30 374.72 472.97 381.87 C 469.59 399.51 466.30 417.17 462.92 434.81 C 461.42 442.34 458.22 450.12 451.82 454.77 C 445.02 459.34 436.23 459.67 428.41 458.16 C 423.16 457.18 418.15 454.17 415.57 449.38 C 411.56 442.67 412.44 434.46 413.88 427.14 C 417.08 410.67 420.25 394.19 423.45 377.73 C 424.88 370.55 427.62 363.15 433.37 358.32 C 437.49 354.81 442.96 353.48 448.24 353.09 M 445.47 369.62 C 441.73 371.18 440.12 375.33 439.38 379.02 C 435.89 396.72 432.29 414.40 428.85 432.10 C 427.91 435.94 428.99 441.08 433.12 442.53 C 436.61 443.40 440.90 443.27 443.54 440.48 C 446.03 437.88 446.74 434.20 447.42 430.79 C 450.49 414.90 453.63 399.04 456.73 383.16 C 457.37 379.49 458.00 375.36 455.93 372.01 C 453.68 368.71 448.94 368.50 445.47 369.62 Z" />
<path fill="#000000" opacity="1.00" d=" M 245.23 354.01 C 259.73 353.99 274.23 354.00 288.74 354.00 C 288.19 357.02 287.55 360.02 286.99 363.04 C 275.48 363.03 263.97 363.05 252.47 363.03 C 250.01 375.35 247.60 387.67 245.11 399.98 C 255.18 400.02 265.24 399.99 275.30 400.00 C 274.71 402.98 274.19 405.97 273.67 408.96 C 263.60 409.12 253.54 409.01 243.47 409.03 C 240.82 422.69 238.19 436.35 235.51 450.00 C 247.03 450.00 258.54 450.00 270.05 450.00 C 269.49 452.66 269.04 455.33 268.51 458.00 C 254.01 458.00 239.51 458.00 225.01 458.00 C 231.76 423.34 238.57 388.69 245.23 354.01 Z" />
<path fill="#000000" opacity="1.00" d=" M 299.09 354.00 C 306.07 354.02 313.06 353.96 320.04 354.01 C 325.82 354.23 332.33 355.12 336.39 359.70 C 340.75 364.70 341.20 371.76 340.64 378.07 C 340.21 385.00 338.20 392.23 333.15 397.25 C 330.55 399.97 327.11 401.62 323.72 403.10 C 326.27 404.47 329.18 405.74 330.63 408.43 C 333.71 414.10 333.32 420.84 332.52 427.03 C 331.50 436.19 327.90 445.59 320.58 451.54 C 314.88 456.28 307.28 457.94 300.02 458.00 C 292.96 458.02 285.89 457.98 278.83 458.00 C 285.64 423.35 292.38 388.68 299.09 354.00 M 306.59 362.04 C 304.17 374.36 301.72 386.68 299.23 398.99 C 306.63 398.74 314.61 400.07 321.41 396.40 C 327.98 393.29 331.52 386.07 331.87 379.06 C 332.39 373.75 332.15 367.13 327.04 364.03 C 320.78 360.66 313.37 362.51 306.59 362.04 M 289.36 450.00 C 294.62 449.94 299.88 450.15 305.14 449.88 C 310.94 449.67 316.13 445.95 319.21 441.18 C 323.24 434.96 324.38 427.35 324.51 420.08 C 324.64 414.85 321.93 409.04 316.48 407.72 C 310.34 406.38 303.96 407.31 297.73 407.04 C 295.01 421.37 292.18 435.69 289.36 450.00 Z" />
<path fill="#000000" opacity="1.00" d=" M 360.69 354.00 C 365.49 354.00 370.28 354.00 375.08 354.00 C 377.69 367.08 380.28 380.17 382.91 393.25 C 384.66 401.99 385.68 410.87 387.60 419.58 C 392.12 397.80 395.79 375.85 399.97 354.00 C 405.21 354.00 410.45 353.99 415.69 354.01 C 409.00 388.70 402.22 423.37 395.45 458.04 C 390.74 458.03 386.04 458.07 381.34 457.99 C 377.08 436.89 372.90 415.77 368.75 394.66 C 364.14 415.67 360.58 436.91 356.31 458.00 C 351.01 457.99 345.72 458.01 340.43 457.99 C 347.16 423.32 353.89 388.65 360.69 354.00 Z" />
<path fill="#000000" opacity="1.00" d=" M 485.80 354.00 C 502.39 354.01 518.98 353.98 535.57 354.01 C 534.61 359.00 533.57 363.98 532.61 368.97 C 526.94 369.09 521.27 369.02 515.60 369.04 C 509.89 398.71 504.14 428.38 498.35 458.04 C 493.06 458.03 487.77 458.04 482.48 458.04 C 488.22 428.37 493.94 398.70 499.75 369.04 C 494.07 369.03 488.40 369.04 482.73 369.04 C 483.81 364.04 484.73 359.00 485.80 354.00 Z" />
<path fill="#000000" opacity="1.00" d=" M 723.84 353.99 C 725.79 353.99 727.75 354.00 729.71 354.02 C 736.45 383.19 742.97 412.43 749.97 441.54 C 755.84 412.39 761.46 383.19 767.12 354.00 C 769.19 354.00 771.27 354.00 773.36 354.01 C 766.55 388.66 759.86 423.34 753.08 458.00 C 751.06 457.99 749.05 458.00 747.05 458.00 C 740.36 428.47 733.87 398.88 726.97 369.40 C 721.09 398.89 715.54 428.46 709.78 457.99 C 707.70 457.99 705.62 457.99 703.56 458.01 C 710.34 423.34 717.04 388.65 723.84 353.99 Z" />
<path fill="#000000" opacity="1.00" d=" M 789.08 354.00 C 803.25 354.01 817.41 353.98 831.58 354.01 C 831.12 356.02 830.66 358.03 830.20 360.04 C 818.22 360.04 806.24 360.05 794.26 360.03 C 791.46 373.67 788.87 387.34 786.11 400.98 C 796.71 401.02 807.31 400.99 817.91 401.00 C 817.50 403.01 817.12 405.02 816.75 407.04 C 806.14 407.04 795.53 407.04 784.92 407.04 C 782.00 422.02 779.16 437.02 776.20 451.99 C 788.27 452.02 800.34 451.98 812.41 452.01 C 812.04 454.01 811.66 456.00 811.30 458.00 C 797.14 458.00 782.99 458.00 768.83 458.00 C 775.64 423.34 782.38 388.68 789.08 354.00 Z" />
<path fill="#000000" opacity="1.00" d=" M 835.06 354.00 C 850.42 354.00 865.78 354.00 881.15 354.00 C 880.67 356.01 880.22 358.02 879.80 360.04 C 873.19 360.04 866.59 360.03 859.99 360.04 C 853.61 392.69 847.26 425.34 840.95 458.00 C 838.87 458.00 836.80 457.99 834.74 458.00 C 841.13 425.36 847.31 392.68 853.68 360.04 C 847.02 360.04 840.35 360.04 833.69 360.04 C 834.16 358.03 834.62 356.01 835.06 354.00 Z" />
<path fill="#fff600" opacity="1.00" d=" M 306.59 362.04 C 313.37 362.51 320.78 360.66 327.04 364.03 C 332.15 367.13 332.39 373.75 331.87 379.06 C 331.52 386.07 327.98 393.29 321.41 396.40 C 314.61 400.07 306.63 398.74 299.23 398.99 C 301.72 386.68 304.17 374.36 306.59 362.04 Z" />
<path fill="#fff600" opacity="1.00" d=" M 445.47 369.62 C 448.94 368.50 453.68 368.71 455.93 372.01 C 458.00 375.36 457.37 379.49 456.73 383.16 C 453.63 399.04 450.49 414.90 447.42 430.79 C 446.74 434.20 446.03 437.88 443.54 440.48 C 440.90 443.27 436.61 443.40 433.12 442.53 C 428.99 441.08 427.91 435.94 428.85 432.10 C 432.29 414.40 435.89 396.72 439.38 379.02 C 440.12 375.33 441.73 371.18 445.47 369.62 Z" />
<path fill="#fff600" opacity="1.00" d=" M 289.36 450.00 C 292.18 435.69 295.01 421.37 297.73 407.04 C 303.96 407.31 310.34 406.38 316.48 407.72 C 321.93 409.04 324.64 414.85 324.51 420.08 C 324.38 427.35 323.24 434.96 319.21 441.18 C 316.13 445.95 310.94 449.67 305.14 449.88 C 299.88 450.15 294.62 449.94 289.36 450.00 Z" />
<path fill="#000000" opacity="1.00" d=" M 683.88 450.00 C 686.42 450.00 688.96 450.00 691.51 450.01 C 691.05 452.68 690.49 455.33 690.03 458.00 C 687.44 458.00 684.84 457.99 682.26 458.00 C 682.76 455.32 683.32 452.66 683.88 450.00 Z" />
</svg>
